<?xml version="1.0" encoding="utf-8"?>
<!-- Generator: Adobe Illustrator 23.0.3, SVG Export Plug-In . SVG Version: 6.00 Build 0)  -->
<svg version="1.1" id="Capa_1" xmlns="http://www.w3.org/2000/svg" xmlns:xlink="http://www.w3.org/1999/xlink" x="0px" y="0px"
	 viewBox="0 0 36.8 36.8" style="enable-background:new 0 0 36.8 36.8;" xml:space="preserve">
<g>
	<path d="M28.3,13c0,0.9-0.7,1.6-1.6,1.6s-1.6-0.7-1.6-1.6s0.7-1.6,1.6-1.6S28.3,12.1,28.3,13z M15,8.4c-1.4,0-2.6,1.2-2.6,2.6
		c0,1.4,1.2,2.6,2.6,2.6c1.4,0,2.6-1.2,2.6-2.6C17.6,9.6,16.5,8.4,15,8.4z M32.8,13.5c-0.1,2.5-3.5,7-3.5,7c-2.7,3.9-1.4,7-1.4,7
		c-5.5,1.2-10.1,9.3-10.1,9.3c-0.2-1.2-2.9-6.2-2.9-6.2c-1.1-1.4-3-0.9-4-0.8c-2.9,0.4-3.6-0.5-3.6-0.5c-0.6-0.4-0.3-2-0.3-2
		c0.2-0.8-0.1-1.2-0.4-1.6c-0.6-0.9-0.3-1.3-0.3-1.3C6.6,24.1,6.5,24,6.5,24c-0.7-0.2-0.7-0.6-0.7-0.6l0-1.3
		c0.1-0.9-0.3-0.9-0.3-0.9c-1.6,0-1.6-1.1-1.6-1.1c-0.1-0.6,1.9-4,1.9-4c0.9-1.7-0.4-2.8-0.5-3.6c-0.4-4.1,1-6.6,2.9-8.6
		C11.3,0.6,15.3,0,17.9,0c6.7,0,9.4,2.2,11.5,4.5C33.7,9.3,32.8,13.5,32.8,13.5z M21.7,9.5h-1.3c-0.1-0.4-0.3-0.9-0.5-1.3l0.9-0.9
		l-2.1-2.1l-0.9,0.9c-0.4-0.2-0.8-0.4-1.3-0.5V4.4h-3v1.3c-0.4,0.1-0.9,0.3-1.3,0.5l-0.9-0.9L9.2,7.4l0.9,0.9
		C9.9,8.7,9.7,9.1,9.6,9.5H8.3v3h1.3c0.1,0.4,0.3,0.9,0.5,1.3l-0.9,0.9l2.1,2.1l0.9-0.9c0.4,0.2,0.8,0.4,1.3,0.5v1.3h3v-1.3
		c0.4-0.1,0.9-0.3,1.3-0.5l0.9,0.9l2.1-2.1l-0.9-0.9c0.2-0.4,0.4-0.8,0.5-1.3h1.3V9.5z M30.9,12h-0.8c-0.1-0.3-0.2-0.5-0.3-0.7
		l0.5-0.5L29,9.3l-0.5,0.5c-0.2-0.1-0.5-0.2-0.7-0.3V8.8h-2v0.8c-0.3,0.1-0.5,0.2-0.7,0.3l-0.5-0.5l-1.4,1.4l0.5,0.5
		c-0.1,0.2-0.2,0.5-0.3,0.7h-0.8v2h0.8c0.1,0.3,0.2,0.5,0.3,0.7l-0.5,0.5l1.4,1.4l0.5-0.5c0.2,0.1,0.5,0.2,0.7,0.3v0.8h2v-0.8
		c0.3-0.1,0.5-0.2,0.7-0.3l0.5,0.5l1.4-1.4l-0.5-0.5c0.1-0.2,0.2-0.5,0.3-0.7h0.8L30.9,12L30.9,12z"/>
</g>
</svg>
