<?xml version="1.0" encoding="utf-8"?>
<!-- Generator: Adobe Illustrator 24.0.0, SVG Export Plug-In . SVG Version: 6.00 Build 0)  -->
<svg version="1.1" id="Layer_1" xmlns="http://www.w3.org/2000/svg" xmlns:xlink="http://www.w3.org/1999/xlink" x="0px" y="0px"
	 viewBox="0 0 36.8 36.8" style="enable-background:new 0 0 36.8 36.8;" xml:space="preserve">
<style type="text/css">
	.st0{font-family:'SairaSemiCondensed-SemiBold';}
	.st1{font-size:10.5513px;}
</style>
<g id="Capa_1">
</g>
<g id="Layer_2_1_">
	<path d="M29.4,4.5C27.4,2.2,24.6,0,17.9,0c-2.6,0-6.6,0.6-9.8,3.9c-1.9,2-3.3,4.5-2.9,8.6c0.1,0.9,1.4,1.9,0.5,3.7
		c0,0-1.9,3.4-1.9,4c0,0,0,1,1.6,1.1c0,0,0.4,0.1,0.3,0.9v1.3c0,0,0.1,0.4,0.7,0.6c0,0,0.1,0.1-0.1,0.4c0,0-0.4,0.4,0.3,1.3
		C6.9,26,7.3,26.4,7,27.3c0,0-0.3,1.6,0.3,2c0,0,0.7,0.8,3.6,0.5c1-0.1,2.9-0.6,4,0.8c0,0,2.7,5,2.9,6.2c0,0,4.5-8.1,10.1-9.3
		c0,0-1.3-3,1.4-7c0,0,3.4-4.5,3.5-7C32.8,13.5,33.7,9.3,29.4,4.5z M19.1,19.3c-2.1,0-4.1-0.6-5.7-1.6c-0.2,0.8-3.3,2.4-3.3,2.4
		s1.7-2.9,1.3-4.1c-0.2-0.2-0.3-0.4-0.5-0.7c-0.7-1-1-2.2-1-3.4c0-4.1,4.1-7.4,9.2-7.4s9.2,3.3,9.2,7.4S24.2,19.3,19.1,19.3z"/>
</g>
<text transform="matrix(1 0 0 1 12.1636 15.0325)" class="st0 st1">&lt;/&gt;</text>
</svg>
