<?xml version="1.0" encoding="utf-8"?>
<!-- Generator: Adobe Illustrator 23.0.3, SVG Export Plug-In . SVG Version: 6.00 Build 0)  -->
<svg version="1.1" id="Capa_1" xmlns="http://www.w3.org/2000/svg" xmlns:xlink="http://www.w3.org/1999/xlink" x="0px" y="0px"
	 viewBox="0 0 222.5 222.5" style="enable-background:new 0 0 222.5 222.5;" xml:space="preserve">
<style type="text/css">
	.st0{fill:#FFFFFF;}
</style>
<g>
	<path class="st0" d="M178.1,27.1C165.6,13.2,149.2,0.3,108.4,0c-15.9-0.1-40.1,3.6-59,23.6C37.9,35.7,29.5,50.9,31.9,75.8
		c0.5,5.4,8.2,11.7,2.8,22.1c0,0-11.6,20.5-11.2,23.9c0,0-0.2,6.2,9.4,6.4c0,0,2.4,0.3,1.7,5.6l-0.1,7.7c0,0,0.3,2.3,4.5,3.7
		c0,0,0.8,0.8-0.4,2.3c0,0-2.2,2.5,1.6,7.8c1.4,1.9,3.7,4.4,2.3,9.5c0,0-1.8,9.7,2,12.1c0,0,4.3,5.2,21.8,3
		c6.1-0.8,17.4-3.7,24.1,4.7c0,0,16.1,30.5,17.3,37.8c0,0,27.4-48.8,60.9-56.4c0,0-8.2-18.4,8.4-42.2c0,0,20.8-27.4,21.4-42.5
		C198.5,81.4,204,56,178.1,27.1z M78.7,57.3c-1.2,0.4-2,1.6-2,2.8l-0.1,14.2C52.7,72.9,52.9,62.4,55,49c1.6-10.6,9.9-19.3,22.1-24.9
		L76.9,40c0,1.3,0.8,2.4,1.9,2.9c1.2,0.5,2.5,0.1,3.4-0.8c2.4-2.7,5.7-4.2,9.2-4.2h0.1c6.8,0.1,12.3,5.6,12.2,12.4
		c-0.1,6.8-5.6,12.2-12.3,12.2h-0.1c-3.5,0-6.9-1.6-9.2-4.3C81.2,57.2,79.9,56.9,78.7,57.3z M152,95c-5.1-0.5-10.4-1.9-15.2-4
		c-12.5-5.4-16-19.6-35.7-17.6c-7.2,0.7-13.3,1.1-18.5,1.1l0.1-8.1c2.6,1.4,5.5,2.2,8.5,2.2c0.1,0,0.1,0,0.1,0
		c10,0,18.3-8.1,18.4-18.2S101.6,32,91.5,31.9c-2.9,0-5.9,0.7-8.5,2l0.1-12.2c9.8-3.3,21.6-4.8,34.2-3.9c13,0.9,25.1,4.8,35.3,10.6
		l-0.1,6.1c-2.6-1.4-5.5-2.2-8.5-2.2c-10,0.1-18.4,8.1-18.5,18.2c0,4.9,1.8,9.5,5.3,13c3.4,3.5,8,5.4,12.9,5.5
		c3.1-0.1,5.9-0.7,8.5-2L152,95z M158.1,95.2l0.3-34.4c0-1.3-0.8-2.4-1.9-2.8c-1.2-0.5-2.5-0.1-3.4,0.8c-2.4,2.7-5.6,4.1-9.3,4.2
		c-3.3,0-6.4-1.3-8.7-3.7c-2.3-2.3-3.6-5.4-3.5-8.7c0.1-6.8,5.6-12.2,12.3-12.2h0.1c3.6,0,6.8,1.6,9.2,4.3c0.8,1,2.2,1.3,3.3,0.9
		c1.2-0.4,2-1.6,2-2.8l0.1-8.5c12,8.6,20.2,20.2,21.7,33.1C182.8,86.4,171.6,94.5,158.1,95.2z"/>
</g>
</svg>
